 <svg  version="1.0" xmlns="http://www.w3.org/2000/svg"  width="300.000000pt" height="300.000000pt" viewBox="0 0 300.000000 300.000000"  preserveAspectRatio="xMidYMid meet">  <g transform="translate(0.000000,300.000000) scale(0.100000,-0.100000)" fill="#000000" stroke="none"> <path d="M1355 2994 c-223 -32 -366 -74 -531 -157 -413 -207 -714 -611 -800 -1072 -26 -138 -26 -392 0 -530 115 -616 595 -1096 1211 -1211 138 -26 392 -26 530 0 616 115 1096 595 1211 1211 26 138 26 392 0 530 -113 607 -582 1084 -1185 1206 -92 19 -366 33 -436 23z m340 -214 c117 -17 244 -58 370 -120 269 -131 464 -326 595 -595 96 -195 130 -343 130 -565 0 -222 -34 -370 -130 -565 -131 -269 -326 -464 -595 -595 -195 -96 -343 -130 -565 -130 -222 0 -370 34 -565 130 -269 131 -464 326 -595 595 -96 195 -130 343 -130 565 0 222 34 370 130 565 131 269 326 464 595 595 122 60 253 103 360 119 84 12 317 13 400 1z"/> <path d="M1013 1857 l-313 -313 0 -44 0 -44 313 -313 312 -313 43 0 c61 0 102 41 102 101 0 42 -2 45 -212 256 l-212 213 593 0 593 0 29 29 c23 23 29 38 29 71 0 33 -6 48 -29 71 l-29 29 -593 0 -593 0 212 213 c210 211 212 214 212 256 0 60 -41 101 -102 101 l-43 0 -312 -313z"/> </g> </svg> 