<?xml version="1.0" standalone="no"?>
<!DOCTYPE svg PUBLIC "-//W3C//DTD SVG 20010904//EN"
 "http://www.w3.org/TR/2001/REC-SVG-20010904/DTD/svg10.dtd">
<svg version="1.0" xmlns="http://www.w3.org/2000/svg"
 width="300.000000pt" height="167.000000pt" viewBox="0 0 300.000000 167.000000"
 preserveAspectRatio="xMidYMid meet">
<metadata>
Created by potrace 1.10, written by Peter Selinger 2001-2011
</metadata>
<g transform="translate(0.000000,167.000000) scale(0.100000,-0.100000)"
fill="#000000" stroke="none">
<path d="M1435 1625 c-22 -8 -41 -15 -42 -15 -7 0 -600 -475 -610 -488 -27
-34 -7 -92 32 -94 11 0 41 2 66 6 l46 8 9 -39 c6 -28 9 -33 11 -16 3 12 -1 32
-7 44 -11 20 -17 21 -71 16 -45 -5 -61 -3 -73 9 -17 17 -20 33 -8 50 16 25
590 476 630 495 72 35 128 24 239 -47 51 -32 127 -81 170 -108 43 -28 149 -96
236 -153 147 -95 158 -105 155 -131 -3 -26 -5 -27 -68 -30 -35 -2 -69 -7 -76
-13 -6 -5 -14 -26 -18 -47 -3 -20 -9 -48 -12 -62 -4 -18 -3 -21 4 -10 5 8 15
39 22 69 l13 54 58 -7 c51 -5 62 -3 79 14 25 25 25 42 3 68 -28 33 -638 420
-680 431 -48 14 -59 13 -108 -4z"/>
<path d="M1464 1589 c-41 -8 -48 -13 -374 -272 -254 -202 -304 -247 -268 -247
7 0 143 106 301 235 175 142 306 241 332 250 41 16 45 16 88 -3 25 -11 174
-104 332 -206 158 -102 292 -187 299 -188 6 -2 14 1 16 7 7 13 -633 422 -667
427 -16 2 -42 1 -59 -3z"/>
<path d="M1440 1528 c-36 -19 -583 -449 -577 -454 1 -1 23 1 49 5 l48 8 17
-79 c16 -77 17 -78 47 -77 24 1 26 3 9 6 -24 5 -32 23 -10 23 7 0 5 5 -5 10
-10 6 -20 29 -24 57 -4 25 -15 54 -26 65 -19 19 -19 20 18 54 21 18 46 36 56
40 10 3 16 10 13 15 -4 5 1 9 9 9 9 0 16 4 16 9 0 5 33 35 73 65 39 31 83 65
96 77 19 16 26 17 32 7 6 -9 9 -7 9 8 0 12 6 26 13 32 9 8 12 -17 12 -121 0
-73 3 -146 7 -163 l7 -31 -62 -7 c-71 -7 -80 -13 -75 -52 3 -29 3 -29 76 -29
39 0 72 -3 72 -7 0 -3 3 -13 6 -21 4 -12 -10 -15 -78 -16 -113 -3 -113 -11 1
-11 92 0 93 0 87 23 -3 12 -6 28 -6 35 0 10 -17 11 -75 6 l-75 -7 0 30 c0 27
4 31 38 37 20 3 52 6 71 6 33 0 34 0 27 38 -4 20 -9 87 -13 147 -5 100 -4 114
15 152 30 59 101 103 164 103 16 0 53 -12 80 -27 61 -33 88 -80 88 -154 0 -44
-4 -55 -33 -84 -59 -59 -167 -71 -229 -25 l-30 22 17 -26 c11 -17 27 -26 44
-27 22 0 23 -1 6 -8 -16 -7 -14 -9 14 -14 19 -4 48 -6 65 -5 25 1 23 2 -14 8
-42 7 -43 7 -10 9 19 1 46 4 60 7 20 4 22 3 10 -5 -9 -7 -10 -11 -3 -11 6 0
18 8 25 18 7 9 22 22 33 28 51 28 75 137 44 196 l-12 23 25 -22 c13 -13 28
-23 32 -23 4 0 31 -15 59 -33 161 -104 247 -158 261 -163 18 -7 22 -30 6 -36
-10 -3 -50 -138 -55 -182 -1 -17 -10 -19 -96 -17 -52 1 -140 4 -196 7 -74 5
-103 3 -103 -5 0 -8 47 -11 158 -12 168 0 230 -5 247 -18 14 -12 102 -22 325
-36 305 -19 402 -40 414 -90 10 -39 -189 -686 -208 -679 -6 2 -40 5 -76 8 -36
3 -72 7 -80 10 -8 3 -44 8 -80 10 -36 3 -90 8 -120 11 -341 29 -463 34 -710
30 -140 -3 -273 -7 -295 -9 -22 -3 -67 -7 -100 -10 -100 -9 -259 -26 -280 -30
-11 -2 -45 -7 -75 -11 -30 -4 -90 -13 -134 -21 -132 -24 -115 -38 -176 159
-29 94 -70 226 -91 292 -43 134 -48 184 -21 208 23 21 140 51 262 66 52 7 115
16 140 21 25 5 74 12 110 15 36 4 74 9 85 11 11 3 5 -4 -13 -15 -18 -12 -37
-19 -42 -16 -16 10 -403 -46 -439 -62 -21 -11 -39 -29 -48 -52 -15 -34 -13
-45 57 -301 86 -317 83 -310 112 -309 46 1 170 27 180 37 9 9 7 37 -6 107 -10
53 -17 98 -15 99 2 2 23 6 47 9 24 2 47 8 52 13 7 8 24 86 37 170 8 49 -10 56
-106 43 -73 -10 -103 -8 -90 5 3 3 46 10 98 17 100 13 121 25 120 67 0 24 -1
25 -9 7 -5 -11 -11 -27 -13 -36 -4 -12 -23 -18 -69 -22 -34 -4 -83 -9 -108
-12 -30 -4 -40 -3 -30 3 8 6 56 15 107 22 l92 13 12 49 c10 43 13 48 26 36 9
-10 15 -44 18 -99 6 -129 43 -461 52 -470 10 -10 234 9 247 21 8 8 -11 497
-20 512 -3 5 -9 6 -14 3 -15 -9 -32 23 -21 42 9 17 10 17 16 1 11 -27 25 -11
25 28 0 47 -42 90 -96 99 -21 3 -45 9 -53 13 -33 18 -635 -68 -691 -98 -27
-14 -60 -60 -60 -82 0 -18 196 -647 204 -655 1 -2 54 6 117 16 573 98 1106
111 1719 41 91 -11 190 -22 220 -25 l55 -7 103 339 c56 186 102 346 102 356
-1 81 -62 96 -535 132 -121 10 -222 19 -224 21 -2 2 7 47 21 101 l24 98 41 5
41 5 -111 71 c-62 39 -193 123 -292 187 -99 63 -194 118 -210 121 -22 5 -43 0
-75 -16z m-396 -648 c14 -5 32 -21 42 -35 15 -23 15 -27 -1 -51 -38 -58 -160
-74 -214 -28 -50 42 -37 84 34 109 47 17 104 19 139 5z m86 -55 c0 -5 -5 -3
-10 5 -5 8 -10 20 -10 25 0 6 5 3 10 -5 5 -8 10 -19 10 -25z m-323 11 c-3 -8
-11 -41 -17 -74 l-12 -60 -82 -11 c-147 -21 -138 -17 -131 -64 4 -23 8 -43 10
-45 2 -3 130 15 170 23 21 4 21 4 4 -78 l-16 -82 -59 -9 c-32 -5 -60 -9 -61
-10 -1 -1 8 -49 21 -108 l22 -107 -75 -13 c-42 -8 -77 -13 -79 -12 -7 4 -142
507 -142 530 0 66 22 76 256 108 209 30 197 29 191 12z m321 -51 c-3 -3 -9 2
-12 12 -6 14 -5 15 5 6 7 -7 10 -15 7 -18z m-34 -107 c7 -65 23 -412 19 -417
-4 -7 -185 -22 -191 -16 -5 4 -50 401 -52 451 0 6 21 9 58 7 33 -3 76 2 102
10 25 8 48 15 52 16 4 1 9 -23 12 -51z m34 -80 l-2 -133 -6 125 c-3 69 -4 128
-2 133 10 22 12 -6 10 -125z m-348 -100 l-16 -83 -49 -11 c-34 -7 -51 -16 -53
-27 -2 -10 4 -56 13 -103 10 -47 14 -88 11 -91 -4 -4 -46 -12 -94 -19 -70 -10
-90 -9 -100 1 -11 10 -9 12 11 8 14 -3 57 0 96 7 82 14 80 9 57 137 -7 40 -10
76 -7 81 3 5 25 13 48 17 51 8 58 17 67 75 3 25 8 54 10 65 3 11 5 24 5 28 1
5 5 6 9 3 5 -3 1 -42 -8 -88z m369 -205 c1 -34 -2 -64 -6 -66 -5 -3 -49 -8
-98 -12 -50 -3 -99 -7 -109 -8 -10 -1 -21 4 -24 12 -3 9 0 11 7 7 6 -4 56 -4
111 0 l100 7 1 116 c2 98 3 108 9 61 5 -30 8 -83 9 -117z"/>
<path d="M880 840 c-11 -11 -20 -28 -19 -37 0 -12 4 -9 10 8 5 15 20 31 32 37
12 6 16 11 10 11 -7 1 -22 -8 -33 -19z"/>
<path d="M720 810 c-19 -4 -80 -13 -135 -20 -112 -14 -171 -34 -185 -61 -6
-10 -9 -37 -8 -61 l1 -43 6 50 c8 69 32 80 217 105 169 23 173 24 153 31 -7 3
-30 3 -49 -1z"/>
<path d="M411 574 c0 -11 3 -14 6 -6 3 7 2 16 -1 19 -3 4 -6 -2 -5 -13z"/>
<path d="M628 563 c-27 -2 -48 -9 -48 -14 0 -11 91 -3 140 12 22 6 21 7 -10 6
-19 0 -56 -2 -82 -4z"/>
<path d="M421 540 c0 -8 4 -24 9 -35 5 -13 9 -14 9 -5 0 8 -4 24 -9 35 -5 13
-9 14 -9 5z"/>
<path d="M441 464 c0 -11 3 -14 6 -6 3 7 2 16 -1 19 -3 4 -6 -2 -5 -13z"/>
<path d="M451 430 c0 -8 4 -24 9 -35 5 -13 9 -14 9 -5 0 8 -4 24 -9 35 -5 13
-9 14 -9 5z"/>
<path d="M471 354 c0 -11 3 -14 6 -6 3 7 2 16 -1 19 -3 4 -6 -2 -5 -13z"/>
<path d="M491 284 c0 -11 3 -14 6 -6 3 7 2 16 -1 19 -3 4 -6 -2 -5 -13z"/>
<path d="M980 680 c-47 -4 -62 -8 -40 -10 51 -4 113 1 130 11 13 7 13 8 0 7
-8 -1 -49 -4 -90 -8z"/>
<path d="M902 635 c0 -16 5 -82 13 -145 l14 -115 -6 99 c-5 105 -20 216 -21
161z"/>
<path d="M933 325 c0 -27 2 -38 4 -22 2 15 2 37 0 50 -2 12 -4 0 -4 -28z"/>
<path d="M1601 1144 c0 -11 3 -14 6 -6 3 7 2 16 -1 19 -3 4 -6 -2 -5 -13z"/>
<path d="M1590 1107 c0 -5 45 -7 100 -5 l100 4 0 -26 c0 -14 -7 -37 -16 -50
l-16 -25 22 24 c14 16 20 35 18 55 l-3 31 -102 0 c-57 0 -103 -4 -103 -8z"/>
<path d="M1600 1015 c0 -11 131 -8 143 4 4 4 -26 7 -68 7 -43 -1 -75 -5 -75
-11z"/>
<path d="M2060 983 c0 -5 28 -11 63 -12 93 -2 303 -21 467 -41 120 -15 171
-41 190 -99 12 -38 9 -50 -80 -343 -114 -375 -127 -408 -148 -408 -9 0 -71 7
-137 14 -66 8 -151 17 -190 21 -38 4 -80 8 -92 10 -12 2 -57 6 -100 10 -43 3
-107 8 -143 11 -119 9 -544 12 -635 4 -49 -5 -128 -11 -175 -14 -98 -6 -411
-47 -550 -71 l-94 -17 -18 22 c-10 12 -18 27 -18 34 0 6 -20 72 -44 146 -24
74 -62 196 -85 270 -23 74 -46 145 -51 158 -27 64 3 132 73 167 44 22 198 49
482 86 162 20 228 37 100 25 -241 -24 -545 -75 -595 -101 -48 -25 -80 -72 -80
-117 0 -48 196 -678 216 -694 11 -8 40 -6 117 8 143 26 453 65 638 79 322 24
893 0 1284 -54 55 -8 107 -11 116 -6 9 5 42 94 84 231 163 530 158 505 130
558 -34 66 -123 85 -520 115 -33 2 -93 7 -132 11 -43 3 -73 2 -73 -3z"/>
<path d="M1120 952 c-25 -2 -49 -7 -53 -11 -8 -8 94 -2 102 5 8 8 -5 9 -49 6z"/>
<path d="M1203 902 c-23 -2 -46 -8 -51 -15 -12 -16 29 -634 44 -658 3 -6 47
-9 110 -8 88 2 102 5 92 17 -10 11 -8 16 6 24 17 10 18 29 15 314 -2 167 -7
304 -11 304 -5 0 -8 5 -8 11 0 9 4 9 13 0 11 -9 14 -73 16 -312 1 -165 5 -307
8 -315 3 -8 0 -14 -6 -14 -6 0 -11 -5 -11 -12 0 -9 3 -9 12 0 14 14 12 627 -3
654 -9 17 -21 19 -97 16 -48 -1 -106 -4 -129 -6z m187 -224 c0 -117 3 -257 7
-310 l6 -97 -94 -3 c-85 -3 -94 -5 -91 -22 2 -11 -1 -15 -8 -11 -6 4 -9 13 -6
20 4 11 -17 333 -37 577 l-4 47 46 4 c25 2 76 4 114 5 l67 2 0 -212z m-125
-438 c-3 -5 -11 -10 -16 -10 -6 0 -7 5 -4 10 3 6 11 10 16 10 6 0 7 -4 4 -10z
m111 2 c-5 -9 -86 -6 -94 3 -3 3 18 5 47 5 29 0 50 -4 47 -8z"/>
<path d="M1220 851 c0 -4 33 -6 73 -4 102 6 106 11 10 12 -46 1 -83 -3 -83 -8z"/>
<path d="M1193 805 c0 -27 2 -38 4 -22 2 15 2 37 0 50 -2 12 -4 0 -4 -28z"/>
<path d="M1203 675 c0 -44 2 -61 4 -37 2 23 2 59 0 80 -2 20 -4 1 -4 -43z"/>
<path d="M1214 505 c0 -49 1 -71 3 -48 2 23 2 64 0 90 -2 26 -3 8 -3 -42z"/>
<path d="M1223 345 c0 -33 2 -45 4 -27 2 18 2 45 0 60 -2 15 -4 0 -4 -33z"/>
<path d="M1465 900 c-6 -10 -6 -436 0 -530 2 -25 3 -64 4 -87 1 -50 1 -50 135
-57 58 -4 94 -2 103 5 14 12 19 139 6 139 -5 0 -9 19 -10 43 -3 40 -2 40 21
-26 13 -38 34 -80 47 -94 59 -63 163 -101 246 -89 50 7 127 41 146 65 9 12 5
11 -16 -2 -15 -10 -32 -15 -37 -12 -6 3 -10 0 -10 -8 0 -10 -7 -13 -20 -10
-19 5 -19 6 6 19 14 8 33 14 40 14 8 0 14 5 14 10 0 6 7 10 16 10 8 0 12 5 9
10 -3 5 1 10 10 10 10 0 13 -4 9 -12 -9 -14 -6 -80 4 -90 4 -3 45 -11 92 -17
64 -7 88 -7 97 2 10 11 83 307 83 340 0 14 4 15 37 1 48 -20 117 -11 149 21
32 32 46 91 33 137 -13 49 -57 80 -123 86 -28 2 -55 8 -61 12 -13 10 -142 30
-193 30 -22 0 -44 -6 -50 -12 -10 -14 -27 -103 -23 -128 2 -13 0 -13 -8 -1 -5
8 -7 20 -4 28 3 8 -13 32 -39 57 -51 49 -115 72 -196 70 -66 -2 -167 -49 -211
-99 l-31 -35 7 89 c4 66 3 94 -7 106 -10 12 -38 15 -141 15 -75 0 -130 -4
-134 -10z m240 -22 c-2 -7 -9 -128 -15 -268 -6 -140 -13 -275 -16 -299 l-6
-43 -86 7 c-48 4 -88 8 -90 10 -2 1 -6 138 -10 304 l-7 301 117 0 c89 0 116
-3 113 -12z m27 -89 l-9 -84 -2 95 c-1 66 2 91 10 83 7 -7 7 -36 1 -94z m308
20 c99 -22 160 -95 160 -191 0 -33 -6 -62 -16 -77 -43 -61 -183 -81 -261 -36
l-43 24 0 -34 c0 -24 9 -45 29 -67 27 -30 35 -33 84 -32 35 0 64 6 82 18 15
10 28 16 29 14 1 -2 15 -24 29 -50 l27 -47 -35 -27 c-74 -56 -158 -68 -249
-33 -126 47 -187 202 -140 358 25 85 90 146 189 177 50 16 59 16 115 3z m388
-24 c31 -6 33 -9 27 -33 -4 -15 -9 -40 -11 -57 -4 -25 -3 -27 7 -12 6 10 25
27 42 38 18 10 27 19 22 19 -6 0 -21 -7 -33 -16 -33 -23 -38 -10 -6 15 41 32
98 28 135 -8 57 -58 19 -146 -68 -158 -38 -5 -46 -2 -76 28 l-33 34 -44 -202
-44 -203 -41 6 c-115 15 -108 11 -101 57 3 23 17 143 32 267 14 124 27 230 29
236 3 10 62 6 163 -11z m-238 -45 c6 -11 8 -20 6 -20 -3 0 -10 9 -16 20 -6 11
-8 20 -6 20 3 0 10 -9 16 -20z m478 -97 c-3 -38 -11 -60 -29 -79 -22 -23 -30
-25 -89 -22 -36 2 -71 6 -79 8 -10 4 -20 -19 -37 -85 -13 -49 -23 -102 -23
-117 -1 -16 -5 -28 -10 -28 -5 0 -2 33 6 73 7 39 18 92 22 115 11 55 22 67 49
53 26 -14 144 -15 122 -1 -13 8 -13 10 1 10 45 0 74 98 45 147 l-17 28 21 -25
c18 -20 21 -34 18 -77z m-941 25 c-3 -8 -6 -5 -6 6 -1 11 2 17 5 13 3 -3 4
-12 1 -19z m479 -180 c-3 -24 -9 -63 -13 -88 -4 -25 -6 -51 -4 -59 1 -7 -2
-10 -9 -6 -6 4 -9 14 -6 22 6 15 -32 88 -41 79 -3 -3 2 -15 11 -28 9 -12 16
-27 16 -32 0 -6 -12 8 -26 30 -25 39 -28 40 -73 38 -49 -3 -141 15 -141 27 0
4 15 3 32 -2 42 -12 143 -12 166 0 24 13 56 24 64 23 4 -1 10 7 13 18 11 34
17 22 11 -22z m-191 -57 l50 -7 -35 -8 c-22 -5 -46 -3 -65 5 -17 7 -33 13 -37
13 -3 1 -10 5 -15 10 -4 5 5 6 22 2 17 -4 53 -11 80 -15z m-305 -123 c0 -71
-5 -76 -65 -68 l-50 7 43 2 c36 1 44 5 52 27 6 14 10 39 10 55 0 16 2 29 5 29
3 0 5 -24 5 -52z m680 -34 c-8 -35 -20 -57 -20 -37 0 25 13 73 20 73 4 0 4
-16 0 -36z m-544 -22 c-6 -5 -55 31 -56 41 0 4 13 -2 30 -14 16 -13 28 -24 26
-27z m-346 -3 c0 -6 -4 -7 -10 -4 -5 3 -10 11 -10 16 0 6 5 7 10 4 6 -3 10
-11 10 -16z m45 1 c3 -5 1 -10 -4 -10 -6 0 -11 5 -11 10 0 6 2 10 4 10 3 0 8
-4 11 -10z m40 0 c3 -5 -1 -10 -10 -10 -9 0 -13 5 -10 10 3 6 8 10 10 10 2 0
7 -4 10 -10z m408 -22 c67 0 75 -2 42 -8 -47 -9 -133 -1 -142 13 -3 6 -1 7 6
3 6 -4 49 -8 94 -8z m236 -4 c5 4 13 1 16 -5 5 -7 -2 -9 -21 -7 -15 2 -30 10
-32 18 -5 13 -3 13 11 2 9 -8 21 -11 26 -8z m110 -20 c2 -2 -12 -4 -32 -4 -20
0 -39 5 -42 11 -5 7 5 8 32 3 21 -4 40 -8 42 -10z m41 7 c0 -5 -7 -11 -15 -15
-15 -5 -20 5 -8 17 9 10 23 9 23 -2z"/>
<path d="M1530 858 c0 -5 35 -7 78 -7 78 2 69 6 -26 11 -28 2 -52 0 -52 -4z"/>
<path d="M1505 580 c4 -151 9 -277 12 -280 3 -3 2 119 -2 270 -4 151 -9 277
-12 280 -3 3 -2 -119 2 -270z"/>
<path d="M1903 769 c-61 -30 -119 -97 -137 -160 -9 -31 -15 -84 -14 -128 l1
-76 7 90 c8 102 27 155 73 203 52 54 95 75 166 82 l66 7 -60 2 c-43 1 -72 -5
-102 -20z"/>
<path d="M1912 684 c-30 -21 -28 -37 9 -68 41 -35 106 -36 145 -3 23 20 25 26
15 46 -7 12 -23 26 -37 31 -38 15 -107 12 -132 -6z m140 -22 c7 -7 0 -8 -24
-3 -19 5 -49 6 -68 3 -24 -3 -31 -2 -25 8 9 15 100 9 117 -8z m-2 -22 c13 -9
13 -11 0 -20 -31 -20 -119 -3 -105 21 8 12 86 11 105 -1z"/>
<path d="M2101 628 c-2 -30 -42 -58 -85 -59 -26 -1 -32 -3 -17 -6 63 -12 119
22 108 65 -4 16 -5 16 -6 0z"/>
<path d="M2030 375 c-48 -11 -50 -13 -20 -14 19 0 49 6 65 14 36 16 27 16 -45
0z"/>
<path d="M2315 770 c19 -8 103 -14 94 -6 -2 2 -29 6 -59 9 -36 4 -48 3 -35 -3z"/>
<path d="M2287 730 c-4 -19 -9 -60 -13 -90 -3 -30 -14 -115 -25 -188 -18 -128
-23 -190 -15 -181 7 7 67 470 63 482 -2 7 -7 -4 -10 -23z"/>
<path d="M2165 471 c-6 -5 -19 -11 -30 -14 -20 -5 -19 -5 1 -6 11 0 29 6 40
14 10 8 14 15 9 15 -6 0 -15 -4 -20 -9z"/>
<path d="M2656 154 c-23 -23 -19 -51 9 -70 24 -16 27 -16 45 1 11 10 20 28 20
40 0 42 -44 60 -74 29z m54 -9 c20 -25 8 -50 -25 -50 -21 0 -31 5 -33 18 -4
21 14 47 33 47 7 0 18 -7 25 -15z"/>
<path d="M2671 123 c1 -23 2 -24 6 -5 2 12 8 22 13 22 5 0 7 -6 4 -14 -3 -8
-1 -16 4 -20 5 -3 8 5 7 17 -1 12 -9 23 -18 25 -13 3 -17 -3 -16 -25z"/>
</g>
</svg>
